<svg width="24" height="24" viewBox="0 0 24 24" fill="none" xmlns="http://www.w3.org/2000/svg">
<path d="M11.9817 14.6231C15.0118 14.6153 17.5882 16.0066 18.5352 19.0014C16.6263 20.1651 14.3795 20.6133 11.9817 20.6074C9.58388 20.6133 7.33704 20.1651 5.42822 19.0014C6.37632 16.0033 8.94836 14.6153 11.9817 14.6231Z" stroke="#333333" stroke-width="1.5" stroke-linecap="square"/>
<path d="M6.59473 13.773C4.47036 13.7675 2.66407 14.7429 2.00013 16.8426C2.72482 17.2844 3.519 17.5791 4.36185 17.7558" stroke="#333333" stroke-width="1.5" stroke-linecap="square"/>
<path d="M17.4058 13.773C19.5301 13.7675 21.3364 14.7429 22.0004 16.8426C21.2757 17.2844 20.4815 17.5791 19.6386 17.7558" stroke="#333333" stroke-width="1.5" stroke-linecap="square"/>
<circle cx="11.9998" cy="7.49102" r="4.09844" stroke="#333333" stroke-width="1.5" stroke-linecap="square"/>
<path d="M16.4833 6.05059C16.7729 5.95272 17.0831 5.89966 17.4058 5.89966C18.9964 5.89966 20.2858 7.18907 20.2858 8.77964C20.2858 10.3702 18.9964 11.6596 17.4058 11.6596C16.6328 11.6596 15.9309 11.3551 15.4136 10.8594" stroke="#333333" stroke-width="1.5" stroke-linecap="square"/>
<path d="M7.25078 5.97469C7.04007 5.92561 6.82048 5.89966 6.59483 5.89966C5.00426 5.89966 3.71484 7.18907 3.71484 8.77964C3.71484 10.3702 5.00426 11.6596 6.59483 11.6596C7.28805 11.6596 7.92407 11.4147 8.42107 11.0067" stroke="#333333" stroke-width="1.5" stroke-linecap="square"/>
</svg>
